<?xml version="1.0" standalone="no"?>
<!DOCTYPE svg PUBLIC "-//W3C//DTD SVG 20010904//EN"
 "http://www.w3.org/TR/2001/REC-SVG-20010904/DTD/svg10.dtd">
<svg version="1.0" xmlns="http://www.w3.org/2000/svg"
 width="20pt" height="20pt" viewBox="0 0 1080.000000 1080.000000"
 preserveAspectRatio="xMidYMid meet">

<g transform="translate(0.000000,1080.000000) scale(0.100000,-0.100000)"
fill="#000000" stroke="none">
<path d="M4832 7183 c-185 -124 -645 -433 -1022 -687 -377 -254 -793 -533
-925 -622 -262 -176 -290 -202 -282 -267 9 -63 -19 -42 577 -442 212 -142 459
-309 550 -370 190 -128 734 -495 1149 -774 308 -206 321 -212 392 -175 58 30
59 36 59 574 l0 490 134 0 c154 0 489 -15 656 -30 549 -49 956 -173 1300 -398
228 -148 438 -370 538 -569 12 -22 33 -51 48 -62 34 -27 98 -28 141 -1 51 31
58 71 44 252 -34 428 -157 761 -405 1093 -87 117 -323 347 -456 446 -330 245
-729 437 -1190 574 -275 81 -440 118 -737 165 l-73 12 0 460 c0 506 -1 512
-61 543 -67 35 -76 31 -437 -212z"/>
</g>
</svg>
