<?xml version="1.0" standalone="no"?>
<!DOCTYPE svg PUBLIC "-//W3C//DTD SVG 20010904//EN"
 "http://www.w3.org/TR/2001/REC-SVG-20010904/DTD/svg10.dtd">
<svg version="1.0" xmlns="http://www.w3.org/2000/svg"
 width="20pt" height="20pt" viewBox="0 0 1080.000000 1080.000000"
 preserveAspectRatio="xMidYMid meet">

<g transform="translate(0.000000,1080.000000) scale(0.100000,-0.100000)"
fill="#000000" stroke="none">
<path d="M5290 8214 c-163 -28 -264 -78 -354 -175 -67 -73 -135 -191 -154
-269 -6 -25 -14 -56 -19 -70 -4 -14 -10 -389 -13 -835 l-5 -810 -805 -5 c-778
-5 -807 -6 -876 -26 -200 -59 -353 -191 -411 -356 -72 -205 -53 -444 49 -616
64 -107 185 -212 298 -256 128 -51 93 -49 945 -55 l800 -6 5 -815 5 -815 25
-80 c73 -232 232 -385 447 -430 91 -19 264 -19 350 1 236 54 405 234 458 486
12 57 15 203 15 848 0 428 3 785 6 794 6 14 81 16 748 16 427 0 778 4 828 10
93 11 195 43 274 87 100 56 208 189 249 308 37 106 47 327 20 440 -39 164
-159 316 -305 387 -157 76 -111 72 -1007 76 l-803 3 -5 22 c-3 12 -6 382 -8
822 -3 883 0 839 -67 979 -35 72 -118 177 -178 224 -47 38 -132 78 -205 99
-51 14 -259 26 -307 17z"/>
</g>
</svg>
