<?xml version="1.0" standalone="no"?>
<!DOCTYPE svg PUBLIC "-//W3C//DTD SVG 20010904//EN"
 "http://www.w3.org/TR/2001/REC-SVG-20010904/DTD/svg10.dtd">
<svg version="1.0" xmlns="http://www.w3.org/2000/svg"
 width="40px" height="40px" viewBox="0 0 1080.000000 1080.000000"
 preserveAspectRatio="xMidYMid meet">

<g transform="translate(0.000000,1080.000000) scale(0.100000,-0.100000)"
fill="#000000" stroke="none">
<path d="M5165 8424 c-236 -23 -412 -55 -604 -111 -185 -53 -316 -105 -507
-198 -588 -290 -1078 -781 -1369 -1369 -153 -312 -240 -591 -291 -941 -23
-151 -26 -615 -6 -775 147 -1167 952 -2147 2069 -2516 344 -113 702 -160 1103
-142 1081 46 2065 690 2559 1676 138 275 233 574 283 892 20 128 23 181 23
460 0 278 -3 332 -23 458 -211 1333 -1255 2360 -2592 2548 -100 14 -555 27
-645 18z m661 -1182 c81 -26 182 -102 235 -178 100 -146 94 -346 -15 -485
-112 -142 -301 -207 -487 -165 -138 31 -253 122 -313 246 -29 60 -31 73 -31
170 0 97 2 110 32 173 65 136 211 241 360 255 71 7 166 0 219 -16z m-395
-1257 c133 -28 258 -111 324 -215 53 -84 67 -143 67 -280 -1 -141 -21 -264
-76 -455 -192 -669 -221 -787 -221 -920 0 -88 3 -105 25 -144 31 -55 77 -80
167 -91 86 -11 190 2 284 35 40 14 75 23 78 20 7 -8 -42 -195 -54 -205 -22
-18 -413 -159 -475 -171 -84 -17 -328 -16 -405 0 -201 44 -362 195 -395 370
-32 170 -5 324 160 901 98 345 121 447 127 565 6 121 -7 177 -51 221 -63 63
-239 72 -399 19 -47 -16 -89 -27 -91 -24 -3 2 7 50 21 106 l25 101 121 45
c179 66 305 106 383 121 95 19 296 20 385 1z"/>
</g>
</svg>
