<?xml version="1.0" standalone="no"?>
<!DOCTYPE svg PUBLIC "-//W3C//DTD SVG 20010904//EN"
 "http://www.w3.org/TR/2001/REC-SVG-20010904/DTD/svg10.dtd">
<svg version="1.0" xmlns="http://www.w3.org/2000/svg"
 width="100pt" height="100pt" viewBox="0 0 1080.000000 1080.000000"
 preserveAspectRatio="xMidYMid meet">

<g transform="translate(0.000000,1080.000000) scale(0.100000,-0.100000)"
fill="#000000" stroke="none">
<path d="M2728 6444 c-409 -74 -748 -403 -838 -812 -24 -109 -27 -337 -5 -440
95 -454 463 -790 920 -842 59 -6 976 -10 2630 -10 2216 0 2551 2 2626 15 337
59 626 280 775 592 66 139 86 230 92 407 7 226 -20 354 -111 530 -146 284
-387 467 -727 553 -60 16 -285 17 -2675 19 -2196 2 -2622 0 -2687 -12z m3956
-658 c42 -17 49 -28 49 -79 0 -56 -28 -77 -100 -77 -44 0 -58 5 -78 25 -76 75
24 175 129 131z m-1624 -147 l0 -142 20 26 c49 62 169 73 236 22 103 -79 127
-328 43 -459 -60 -95 -198 -114 -282 -38 -18 16 -20 16 -41 -11 -20 -25 -27
-27 -94 -27 l-72 0 0 385 0 385 95 0 95 0 0 -141z m-1066 86 c101 -26 99 -23
65 -109 l-30 -74 -49 19 c-100 38 -189 32 -198 -14 -6 -29 16 -46 125 -100
136 -66 183 -121 183 -217 0 -83 -66 -175 -148 -207 -71 -27 -250 -25 -314 4
l-48 22 0 84 0 83 83 -28 c135 -46 232 -33 225 30 -3 23 -19 35 -111 84 -60
31 -120 66 -133 79 -59 56 -72 192 -24 263 25 35 78 71 128 86 45 14 185 11
246 -5z m3086 -100 l0 -55 70 0 70 0 0 -70 0 -69 -67 -3 -68 -3 -3 -117 c-2
-108 -1 -119 19 -139 21 -21 48 -21 112 -3 15 5 17 -3 17 -64 0 -69 0 -70 -32
-83 -51 -22 -196 -18 -234 5 -61 37 -69 63 -72 244 l-4 162 -34 0 c-33 0 -34
1 -34 38 0 33 5 40 44 67 35 23 50 43 68 88 l23 57 62 0 63 0 0 -55z m-1084
-84 l44 -31 46 33 c42 29 52 32 122 32 90 0 134 -20 167 -75 18 -32 20 -55 23
-262 l3 -228 -95 0 -96 0 -1 168 c0 188 -9 231 -51 246 -32 11 -74 -12 -88
-50 -6 -14 -10 -102 -10 -195 l0 -169 -100 0 -100 0 0 180 c0 115 -4 188 -12
205 -22 48 -80 42 -115 -12 -15 -22 -18 -57 -21 -200 l-4 -173 -94 0 -94 0 0
280 0 280 75 0 c41 0 75 -4 75 -9 0 -5 5 -22 10 -37 l11 -27 27 26 c46 44 89
58 165 54 57 -4 76 -10 113 -36z m-1616 -141 c0 -184 10 -232 50 -245 12 -4
34 -2 49 4 51 22 56 41 59 234 l4 177 94 0 94 0 0 -280 0 -281 -72 3 c-70 3
-72 4 -81 33 -13 42 -14 42 -45 12 -57 -55 -155 -73 -229 -42 -50 21 -72 42
-94 90 -16 35 -19 68 -19 253 l0 212 95 0 95 0 0 -170z m2350 -110 l0 -280
-95 0 -95 0 0 280 0 280 95 0 95 0 0 -280z"/>
<path d="M5093 5406 c-27 -23 -28 -29 -28 -108 0 -103 17 -138 69 -138 51 0
70 28 74 111 5 81 -1 112 -28 139 -26 26 -53 25 -87 -4z"/>
</g>
</svg>
