<?xml version="1.0" standalone="no"?>
<!DOCTYPE svg PUBLIC "-//W3C//DTD SVG 20010904//EN"
 "http://www.w3.org/TR/2001/REC-SVG-20010904/DTD/svg10.dtd">
<svg version="1.0" xmlns="http://www.w3.org/2000/svg"
 width="30pt" height="30pt" viewBox="0 0 1080.000000 1080.000000"
 preserveAspectRatio="xMidYMid meet">

<g transform="translate(0.000000,1080.000000) scale(0.100000,-0.100000)"
fill="#000000" stroke="none">
<path d="M3405 7783 c-61 -8 -192 -47 -252 -73 -100 -45 -203 -117 -289 -204
-147 -147 -222 -286 -276 -506 -10 -45 -13 -347 -13 -1600 0 -1469 1 -1549 19
-1625 44 -190 132 -348 268 -482 151 -149 282 -223 474 -270 63 -16 205 -17
1564 -21 1508 -3 1614 -1 1744 33 244 64 480 254 606 488 50 93 86 194 102
289 14 83 19 1242 5 1291 -9 33 -61 67 -103 67 -18 0 -47 -12 -70 -29 -60 -44
-232 -224 -244 -255 -6 -17 -10 -192 -10 -489 0 -362 -3 -477 -15 -530 -41
-193 -209 -368 -396 -412 -55 -13 -265 -15 -1553 -15 -1652 0 -1547 -4 -1674
67 -71 39 -159 122 -203 191 -15 24 -39 75 -51 111 l-23 66 0 1515 c0 1273 2
1523 14 1565 26 92 71 167 145 241 74 74 121 103 221 138 59 20 75 20 1525 24
1326 3 1475 1 1567 -14 101 -16 102 -16 136 5 18 11 75 63 125 115 89 92 97
106 93 161 -5 59 -57 93 -206 136 l-80 23 -1560 2 c-858 1 -1573 -1 -1590 -3z"/>
<path d="M7470 7544 c-48 -22 -204 -174 -1170 -1139 l-1115 -1115 -460 460
c-345 346 -472 467 -509 485 -66 33 -169 35 -232 4 -55 -26 -476 -444 -507
-502 -32 -61 -31 -184 1 -246 27 -51 1507 -1534 1574 -1578 39 -25 52 -28 133
-28 85 0 93 2 140 32 74 48 2857 2838 2881 2888 28 58 26 186 -3 240 -12 22
-124 142 -250 266 -197 195 -235 228 -277 243 -72 24 -141 21 -206 -10z"/>
</g>
</svg>
