<?xml version="1.0" standalone="no"?>
<!DOCTYPE svg PUBLIC "-//W3C//DTD SVG 20010904//EN"
 "http://www.w3.org/TR/2001/REC-SVG-20010904/DTD/svg10.dtd">
<svg version="1.0" xmlns="http://www.w3.org/2000/svg"
 width="40pt" height="40pt" viewBox="0 0 1080.000000 1080.000000"
 preserveAspectRatio="xMidYMid meet">

<g transform="translate(0.000000,1080.000000) scale(0.100000,-0.100000)"
fill="#000000" stroke="none">
<path d="M4961 7845 c-75 -24 -124 -86 -145 -187 l-6 -28 -766 -2 -766 -3 -28
-32 c-41 -46 -53 -101 -48 -224 4 -88 8 -112 27 -143 45 -72 -145 -66 2173
-66 2030 0 2094 1 2124 19 46 28 67 82 72 185 6 109 -10 182 -47 227 l-29 34
-772 5 -773 5 -12 48 c-16 64 -61 125 -110 151 -38 20 -56 21 -445 23 -322 2
-414 -1 -449 -12z"/>
<path d="M3427 6923 c-5 -9 0 -53 67 -658 25 -225 60 -534 77 -685 16 -151 37
-336 44 -410 8 -74 33 -295 55 -490 22 -195 45 -398 51 -450 54 -498 81 -746
94 -860 33 -291 46 -409 56 -505 5 -55 12 -106 14 -112 3 -10 314 -13 1509
-13 l1504 0 6 33 c3 18 15 116 26 217 11 102 29 264 39 360 11 96 36 321 56
500 20 179 42 384 50 455 8 72 26 231 40 355 14 124 30 270 35 325 6 55 15
136 20 180 6 44 38 325 70 625 33 300 67 606 75 680 31 269 36 316 42 388 l6
72 -461 0 -462 0 -4 -22 c-3 -13 -12 -151 -21 -308 -19 -348 -30 -524 -50
-830 -8 -129 -24 -383 -35 -565 -20 -323 -40 -651 -60 -970 -6 -88 -20 -308
-31 -490 -11 -181 -24 -375 -27 -430 l-7 -100 -114 -3 -114 -3 7 158 c4 87 11
210 16 273 5 63 14 201 20 305 5 105 14 253 20 330 6 77 21 327 35 555 14 228
32 523 40 655 8 132 22 348 30 480 9 132 22 348 31 480 8 132 18 295 21 363
l6 122 -347 0 -346 0 0 -1860 0 -1860 -115 0 -115 0 -2 1858 -3 1857 -339 3
c-187 1 -343 -1 -346 -5 -7 -8 -2 -101 25 -528 8 -132 17 -276 20 -320 3 -44
12 -186 20 -315 8 -129 24 -383 35 -565 11 -181 25 -400 30 -485 6 -85 17
-265 25 -400 8 -135 24 -391 35 -570 11 -179 23 -371 27 -427 l6 -103 -115 0
-116 0 -6 68 c-3 37 -8 117 -11 177 -3 61 -12 211 -20 335 -15 231 -34 528
-60 960 -8 135 -19 315 -25 400 -5 85 -19 308 -30 495 -11 187 -25 399 -30
470 -5 72 -12 180 -15 240 -11 215 -36 559 -41 567 -7 10 -911 11 -917 1z"/>
</g>
</svg>
